<?xml version="1.0" encoding="UTF-8"?>
<svg version="1.1" viewBox="0 0 2048 1470" width="1280" height="1280" xmlns="http://www.w3.org/2000/svg">
<path transform="translate(1117,333)" d="m0 0 9 3 19 9 15 9 13 9 20 14 11 8 17 16 7 7 9 11 13 16 9 13 13 21 10 19 11 27 8 24 6 26 4 27 2 24v28l-4 36-5 24-8 26-8 22-9 20-10 18-15 23-13 17-10 11-7 8-13 13-8 7-17 14-17 12-16 10-24 13-20 9-19 7-36 9-25 4-17 2h-43l-38-4-11-3v-1h26l26-2 30-5 30-8 31-11 23-10 17-9 23-13 18-12 14-11 16-13 13-12 8-7 9-10 12-14 13-17 13-20 8-14 8-16 9-21 9-27 1-10-16 36-9 19-10 16-14 21-10 13-13 15-22 22-11 9-12 10-13 9-28 17-25 12-19 8-25 9-28 7-26 5-32 3h-42l-25-3-25-5-24-7-21-8-22-10-14-8-16-11-12-9-14-12-18-18-11-14-10-13-9-14-9-17-12-28-7-24-5-24-3-26h3l8 23 10 21 12 20 9 12 11 12 4 5 2 1v2l4 2 9 8 25 15 17 8 16 5 23 4 13 1h22l19-2 26-6 18-6 26-12 16-9 19-13 13-10 10-10h2l2-4 10-10 11-14 9-12 12-19 8-16 7-16 9-27 4-16v-6l-10 20-10 16-11 14-11 12-7 8-11 10-11 9-9 7-16 11-13 8-16 9-7 3-3-1 13-10 15-15 5-4 7-8 9-10 9-11 10-13 13-20 9-15 8-15 13-30 7-20 4-13 7-36 3-24h3l8 17 6 18 6 26 3 19 1 16v20l-2 25-4 22-7 26-7 19-14 29-10 18-13 18-14 17-7 8-20 20-11 9-13 11-19 12-6 4 6-1 19-8 18-10 18-12 12-9 16-13 18-18 9-11 12-15 1-2h2l-3 11-7 17-12 23-12 19-14 19-11 14-1 2 23-4 29-8 21-9 28-15 16-12 13-11 12-11 8-8 9-11 13-17 14-24 11-22 9-24 7-26 5-26 3-27v-40l-3-27-7-32-9-27-11-23-11-18-12-16-6-5 5 13 7 18 8 29 7 31 4 30v54l-4 28-6 27-8 26-9 20-10 20-12 19-11 14-6 5 2-5 9-19 10-28 7-30 5-29 2-24v-34l-2-28-6-38-7-30-8-26-15-40-12-26-14-27z" fill="#818181"/>
<path transform="translate(1135,187)" d="m0 0 1 3-15 38-9 19-15 24-12 16-12 14-19 19-8 7-13 11-18 13-24 16-20 12-28 16-25 14-17 10-24 15-12 8-19 14-14 12-10 9-14 14-11 14-12 17-12 21-8 16-7 19-4 20-1 9v16l3 18 5 15 8 16 10 14 4 5-3-9-7-19-4-19v-20l4-20 6-19 7-17 10-17 10-14 9-12 9-10 11-12 19-19 8-7 14-12 15-11 17-13 18-11 15-9 21-12 15-7v3l-16 16-8 7-11 12-11 13-14 19-13 20-9 16-8 17-9 24-7 23-4 19-2 14-1 13v37l3 27v6l-3-1-9-15-7-15-5-19-2-15v-23l2-17 4-18 7-21 7-17v-3l-9 10-12 21-7 16-6 18-5 20-2 13v26l4 21 8 24 8 16 8 14 9 12 10 12-1 3-8 2h-32l-21-4-27-9-21-10-14-10-11-9-12-12-9-11-9-12-9-16-8-19-6-21-3-16-1-10v-31l3-21 4-18 11-33 9-21 10-19 10-16 11-17 9-10 9-11 8-8 2-3h2v-2l8-7 12-11 14-11 23-16 18-11 16-9 23-11 19-9 104-43 22-11 15-9 6-4-1 4-10 10-10 8-16 11-14 9-22 13-26 15-15 9-20 11-19 12-14 9-12 8-16 11-12 9-14 11-13 11-15 14-19 19-7 8-11 14-10 15-12 21-4 9 5-5 9-13 8-11 8-10 11-12 16-16 8-7 18-14 13-9 21-14 28-17 23-13 25-13 22-12 41-20 16-9 27-14 23-14 10-7 15-10 10-8 12-11 15-15 10-14z" fill="#9D9D9D"/>
<path transform="translate(1117,333)" d="m0 0 9 3 19 9 15 9 13 9 20 14 11 8 17 16 7 7 9 11 13 16 9 13 13 21 10 19 11 27 8 24 6 26 4 27 2 24v28l-4 36-5 24-8 26-8 22-9 20-10 18-15 23-13 17-10 11-7 8-13 13-8 7-17 14-17 12-16 10-24 13-20 9-19 7-36 9-25 4-17 2h-43l-38-4-11-3v-1h26l26-2 30-5 30-8 31-11 23-10 17-9 23-13 18-12 14-11 16-13 13-12 8-7 9-10 12-14 13-17 13-20 8-14 8-16 9-21 9-27 1-10-8 18-3-1-2 5-3 7-3 3h-2l-1 4-5 5-11 2-7 6-5 3-18 6-8-4v-10l4-8 3-7h2l1-5 3-7v-6l7-15 8-22 8-32 4-25 2-19v-40l-3-27-7-32-9-27-11-23-11-18-12-16-6-5 5 13 7 18 8 29 7 31 4 30v54l-4 28-6 27-8 26-9 20-10 20-12 19-11 14-6 5 2-5 9-19 10-28 7-30 5-29 2-24v-34l-2-28-6-38-7-30-8-26-15-40-12-26-14-27z" fill="#9E9E9E"/>
<path transform="translate(977,402)" d="m0 0v3l-16 16-8 7-11 12-11 13-14 19-13 20-9 16-8 17-9 24-7 23-4 19-2 14-1 13v37l3 27v6l-3-1-9-15-7-15-5-19-2-15v-23l2-17 4-18 7-21 7-17v-3l-9 10-12 21-7 16-6 18-5 20-2 13v26l4 21 8 24 8 16 8 14 9 12 10 12-1 3-8 2h-32l-21-4-27-9-21-10-14-10-11-9-12-12-9-11-9-12-9-16-8-19-6-21-3-16-1-10v-31l2-4 1-6 3-7 5-12h2l2-4 5-1 6 5 9 4 6-2 13-2 6-3 9 1 17-9 9-4 10-7 7-6 3-3 7-5 9-11 11-11 5-1v3l-14 14-11 14-12 17-12 21-8 16-7 19-4 20-1 9v16l3 18 5 15 8 16 10 14 4 5-3-9-7-19-4-19v-20l4-20 6-19 7-17 10-17 10-14 9-12 9-10 11-12 19-19 8-7 14-12 15-11 17-13 18-11 15-9 21-12z" fill="#818181"/>
<path transform="translate(1269,712)" d="m0 0h1v6l2 3 6-2 4-2 1-2 7-2 4 5 5-1-1 7-10 28-9 20-10 18-15 23-13 17-10 11-7 8-13 13-8 7-17 14-17 12-16 10-24 13-20 9-19 7-36 9-25 4-17 2h-43l-38-4-11-3v-1h26l26-2 30-5 30-8 31-11 23-10 17-9 23-13 18-12 14-11 16-13 13-12 8-7 9-10 12-14 13-17 13-20 8-14 8-16 9-21z" fill="#818181"/>
<path transform="translate(1072,471)" d="m0 0 3 3 9 20 7 25 5 25 2 24v20l-2 25-4 22-3 12h-2l-7 20-2 3-1 7-6 7-6 8-3 5-6 4-4 6-10 10-13 11-7 3-10 2-1 3h-5l1-5 4-2 1-4h2v-3h2l3-9 5-5h2l2-6 5-7 4-4 4-7 5-9-1-2 8-15 8-19 9-27 4-16v-6l-10 20-10 16-11 14-11 12-7 8-11 10-11 9-9 7-16 11-13 8-16 9-7 3-3-1 13-10 15-15 5-4 7-8 9-10 9-11 10-13 13-20 9-15 8-15 13-30 7-20 4-13 7-36 3-24z" fill="#9E9E9E"/>
<path transform="translate(517,1103)" d="m0 0h59l12 3 12 6 10 9 7 11 4 10 2 14-1 13-4 13-9 14-8 8 2 5 7 4 11 5 2 4-1 19-1 1h-10l-10-3-11-6-8-7-9-11h-28v26l-1 1h-26l-1-1v-132l-1-5zm28 25-2 5v26l1 28 1 1 9 1h10l13-2 8-4 5-5 5-8 2-10v-7l-3-9-6-9-8-5-7-2z" fill="#9D9D9D"/>
<path transform="translate(383,1103)" d="m0 0h24l16 4 13 7 10 9 8 9 7 12 4 13 1 5v19l-4 16-6 12-8 10-7 7-10 7-13 6-13 3h-20l-13-3-16-8-11-9-8-9-7-12-4-12-1-6v-21l4-16 8-15 10-11 11-8 10-5zm2 25-12 4-11 8-7 10-3 9-1 6v13l3 13 6 10 8 8 10 5 6 2 7 1h11l13-4 11-7 7-8 5-11 1-4v-22l-4-11-6-8-9-8-8-4-8-2z" fill="#9D9D9D"/>
<path transform="translate(1013,1103)" d="m0 0h29v22l2 5 8 7 17 16 11 9 16 15 3 2 1-14v-61l1-1h26l1 3-1 2v128l1 6h-27l-1-5v-21l-7-8-15-14-11-9-7-7-11-9-8-6 1 79h-29l1-4v-130z" fill="#9D9D9D"/>
<path transform="translate(886,1102)" d="m0 0h32l3 2 12 40 11 34 13 44 6 16 2 4h-30l-9-27v-2l-39 10-12 6-4 8-2 5h-28l3-10 15-45 18-60 7-23zm14 37-11 38-6 20v3l5-1 25-7 5-3-2-11-9-29-4-10z" fill="#9D9D9D"/>
<path transform="translate(733,1103)" d="m0 0h24l21 5 2 1-1 4-13 23-4-2-4-3-9-2h-11l-12 3-10 6-7 8-5 10-2 6-1 7v9l3 12 5 10 7 7 12 6 12 3h9l9-2 8-5 2-3v-11l-3-4-8-2h-10l-3 2h-3l-3-18v-9l5-2h19l12 4 9 6 7 8 4 8 1 4v16l-4 11-9 10-8 6-11 5-9 2h-21l-12-3-16-8-12-11-8-9-8-16-3-12v-19l3-12 5-12 7-11 9-10 11-8 11-5z" fill="#9D9D9D"/>
<path transform="translate(1405,1103)" d="m0 0h78l5 10 5 15v3l-7-2h-52l-1 5v24l1 3 15-4 24-1 6-1-5 30-2 1-4-3h-14l-10 4-5 5-4 8-2 6 1 9 2 1h56l7-1-1 5-8 20-2 2h-82l-1-3 1-36v-59z" fill="#9D9D9D"/>
<path transform="translate(1261,1103)" d="m0 0h89l1 2v18l-3 9-13 19-10 14-12 17-13 19-9 12-1 3h60l4-1 1 1v24l-3 2h-95l-1-2v-22l4-8 14-20 13-18 11-16 13-18 6-9-56-1-1-1v-23z" fill="#9D9D9D"/>
<path transform="translate(1546,1103)" d="m0 0h31l13 23 6 11h3l14-25 5-9h32l-1 3-4 4-11 19-10 18-8 16-1 7 11 22 10 18 15 26 4 4v2h-30l-6-9-11-19-9-16-3-1-2 5-12 22-10 17-1 1h-30l2-4 12-21 14-25 10-19 2-6-8-16-12-23-11-19-1-3-3-1z" fill="#9E9E9E"/>
<path transform="translate(977,402)" d="m0 0v3l-16 16-8 7-11 12-11 13-14 19-13 20-4 7-6 1-3 1v2l-8 7-8 6-2 1h-9l-8 2-1 2-9 3-9 1-4 1-2-4-7 1 2-5 6-5 1-2h2v-3h2l1-3h2l2-5 23-23 3-5 12-10 11-8 17-13 18-11 15-9 21-12z" fill="#9D9D9D"/>
<path transform="translate(1176,1103)" d="m0 0h29v139h-28l1-47v-20l-1-65z" fill="#9D9D9D"/>
<path transform="translate(1204,562)" d="m0 0 5 1v2h2v2h2v12l-5 28-7 26-7 19-12 25-10 18-12 17-10 11v-3l10-21 10-28 7-30 5-29 3-36 1-3 4-2 5-6z" fill="#818181"/>
<path transform="translate(1037,643)" d="m0 0h2l-2 4-15 16-11 9-11 10-22 15-13 8-16 9-7 3-3-1 13-10 15-15 5-4 7-8 8-9h1l-1 7-6 8 3-1 2 1v-2l6-2 4-4h3l2-4 9-5h3l1-3h2l1-3h2l1-3h2l1-3h2l2-4z" fill="#848484"/>
<path transform="translate(977,402)" d="m0 0v3l-6 6-11 3-6 3-6 4h-3v2l-9 4-10 7-9 6-7 3-4 1v2l-9 7-4 3h-2l-1 3-3 1v-3l13-10 10-7 19-12 26-15 15-8z" fill="#868686"/>
<path transform="translate(1203,1113)" d="m0 0h1l1 129h-5l1-2 1-107z" fill="#8B8B8B"/>
<path transform="translate(1044,674)" d="m0 0 3 1-5 9-7 11h-2l-2 5-5 8-5 5-6 3 2-4 13-16 13-20z" fill="#858585"/>
<path transform="translate(977,402)" d="m0 0v3l-6 6-11 3-6 3-6 4h-3v2l-5 1 1-3 21-12z" fill="#858585"/>
<path transform="translate(459,1143)" d="m0 0 2 1 4 13 1 5v19l-2 10-2 1 1-27-2-11-2-6z" fill="#878787"/>
<path transform="translate(743,1162)" d="m0 0h19l12 4 8 5v2l-5-2-5-3-10-3-21-1-1 11-2-2v-9z" fill="#8A8A8A"/>
<path transform="translate(1177,1107)" d="m0 0h2l1 2v46h-1l-1-5z" fill="#818181"/>
<path transform="translate(1087,646)" d="m0 0h1l-1 9-7 20-2 5-2-3 2-9 3-7 5-14z" fill="#878787"/>
<path transform="translate(735,488)" d="m0 0 2 1-11 22h-4l4-13 2-4 5-3z" fill="#828282"/>
<path transform="translate(1135,187)" d="m0 0 1 3-7 18h-2l-2 5-2-1 1-7 9-15z" fill="#eee"/>
<path transform="translate(852,448)" d="m0 0 3 1-22 18-6 4v-3l4-2v-2l11-9z" fill="#848484"/>
<path transform="translate(1064,605)" d="m0 0 1 3-9 15-9 12-3 2-1-2h2l2-4 4-5 5-9 4-5z" fill="#878787"/>
<path transform="translate(1202,1214)" d="m0 0h2l1 28h-5l1-2z" fill="#818181"/>
<path transform="translate(1281,663)" d="m0 0h2l-1 11-2 7-4-4 3-10z" fill="#818181"/>
<path transform="translate(1065,629)" d="m0 0h1l-1 8-4 10-3 6-3 3 1-5 6-15z" fill="#868686"/>
<path transform="translate(459,1143)" d="m0 0 2 1 4 13v11l-2-3-2-11-2-6z" fill="#838383"/>
<path transform="translate(762,1163)" d="m0 0 7 1 12 6 1 3-5-2-5-3-10-3z" fill="#878787"/>
<path transform="translate(955,423)" d="m0 0 2 1-13 14-3-1 4-5h2l2-4z" fill="#858585"/>
<path transform="translate(352,1187)" d="m0 0 2 1 6 12 3 3-1 2-4-4v-2l-3-1-3-6z" fill="#888"/>
<path transform="translate(852,448)" d="m0 0 3 1-11 9-5 3 2-4 7-6z" fill="#888"/>
<path transform="translate(752,1128)" d="m0 0 7 1 8 3-1 4-4-2-4-3-6-2z" fill="#868686"/>
<path transform="translate(1044,674)" d="m0 0 3 1-5 9-5 3 2-5z" fill="#868686"/>
<path transform="translate(1039,685)" d="m0 0v3l-4 7-4 1 2-5 5-5z" fill="#848484"/>
<path transform="translate(939,422)" d="m0 0 2 1-9 7-5 2 2-4z" fill="#878787"/>
<path transform="translate(956,702)" d="m0 0m-1 1m-1 1m-1 1m-1 1m-1 1m-1 1m-2 1 2 1-2 2 1 2-7 3-3-1z" fill="#898989"/>
<path transform="translate(1053,623)" d="m0 0 1 3-8 10h-3l2-1 2-4z" fill="#888"/>
<path transform="translate(898,449)" d="m0 0m-2 1 2 1-5 5h-2l-1 3-3 1v-3z" fill="#878787"/>
<path transform="translate(922,461)" d="m0 0 1 3-7 9-1-3h2l1-4z" fill="#898989"/>
</svg>
