<?xml version="1.0" encoding="UTF-8"?>
<svg version="1.1" viewBox="0 0 1628 1328" width="1280" height="1280" xmlns="http://www.w3.org/2000/svg">
<path transform="translate(957,359)" d="m0 0 6 2 16 8 23 12 20 13 32 22 13 12 10 9v2h2l7 8 12 13 11 14 14 19 13 21 10 18 11 23 9 23 8 26 6 29 4 27 2 24v48l-3 28-7 36-7 24-7 20-11 25-12 23-12 20-10 14-10 13-13 16-7 7-7 8-14 14-11 9-14 12-19 14-17 11-19 11-29 14-21 8-41 12-20 4-30 4-27 2h-19l-35-2-26-4-2-1 1-3 64-6 25-5 32-9 24-8 24-10 21-10 19-10 16-9 33-22 12-9 13-11 8-7 12-11 21-21 7-8 13-16 13-18 12-19 13-24 10-21 9-24 7-25 3-15-4 10-12 29-11 24-12 22-12 19-7 10-9 12-11 14-11 12-7 8-14 14-22 18-11 8-18 13-19 12-27 14-27 12-19 7-27 8-34 8-24 4-41 4h-28l-42-5-23-4-29-8-25-9-24-11-23-13-12-8-15-11-16-13-8-7-15-15-9-11-10-12-13-19-10-17-13-27-9-24-6-22-6-31-2-14v-13h2l6 16 9 22 13 25 11 16 10 13 11 12 10 10 13 10 14 9 24 13 30 10 20 4 15 2h27l29-4 25-6 26-8 29-14 22-13 17-12 11-9 10-9 5-5h2v-2l8-7 12-13 10-13 14-21 11-19 12-25 11-30 6-20 1-9-9 16-8 14-12 17-12 14-7 8-9 10-10 9-14 12-20 15-15 10-22 12-19 9v-3l7-7 10-8 30-30 7-8 11-13 10-13 13-19 11-18 9-16 11-22 11-27 9-28 6-22 6-34 2-21 1-2 3 1 5 10 10 26 6 20 6 30 2 20v41l-2 22-5 26-7 25-9 24-11 24-11 20-12 19-10 14-14 17-9 11-7 8h-2l-2 4h-2v2h-2v2l-8 7-10 9-11 9-14 10-29 17-3 2 8-2 23-10 23-12 16-10 17-12 14-12 10-9 8-7 10-10 9-11 9-10 8-10 4-4h2l-1 7-7 20-8 17-8 14-12 19-12 17-18 22-4 6 9-2 14-2 21-5 24-8 24-11 16-8 19-12 16-13 8-7 10-9 9-9 9-11 9-10 10-14 11-17 12-22 11-24 9-24 7-25 6-31 3-23 1-16v-32l-2-25-3-20-6-27-7-23-10-24-8-16-9-16-12-17-6-7v-2l-4-2v3l6 15 12 36 6 22 7 34 3 24 1 13v49l-3 29-5 26-8 29-9 24-12 26-8 15-13 20-10 14-5 5h-2l1-6 12-30 9-27 7-28 5-27 3-30v-53l-3-33-6-35-6-26-7-26-11-33-10-26-12-27-12-24-11-20z" fill="#858585"/>
<path transform="translate(979,190)" d="m0 0 1 3-5 17-11 26-8 17-11 19-12 19-10 13-7 9-12 14-18 18-8 7-14 12-17 13-23 16-17 10-16 10-19 11-18 10-23 13-18 10-23 14-19 12-18 13-16 12-15 14-10 9-6 5-7 8-11 12-13 18-12 19-13 25-9 23-5 19-2 15v25l3 19 5 16 5 12 8 15 10 14 4 5 2 1-2-5-11-22-5-15-2-9-1-9v-19l2-16 6-23 8-20 8-16 15-23 10-14 9-11 12-14 14-15 14-13 8-7 13-11 11-9 13-10 17-12 24-16 22-13 18-10 24-13h3l-2 4-5 6-11 9-27 27-9 11-11 13-13 18-10 15-14 25-11 24-9 25-7 23-6 29-3 24v50l2 18 2 13v7l-5-4-11-17-9-21-5-19-3-19v-24l3-24 6-26 15-39-5 5-10 15-13 25-9 24-5 19-4 25v29l5 27 6 20 6 15 8 15 8 12 12 16 8 8 3 4v4l-5 1-24 2h-13l-24-3-16-4-17-6-29-14-11-7-12-9-14-12-12-12-9-11-9-13-10-17-9-21-6-18-5-23-2-17v-34l3-25 5-24 9-29 11-26 10-19 6-12 14-22 10-14 14-18 14-15 18-18 22-18 20-15 22-14 20-12 22-12 25-12 54-23 37-15 38-16 21-10 23-13 12-7h3l-1 4h-2l-2 4-16 13-11 8-12 9-19 12-13 8-28 16-24 14-26 15-18 11-32 20-14 10-12 8-14 10-13 11-14 11-12 11-8 7-6 6h-2l-2 4h-2l-2 4-9 9-7 8-11 13-12 17-9 14-7 12-8 17-4 10v2l7-12 11-17 13-19 8-10 11-12 22-22 11-9 12-10 19-14 15-10 13-8 28-17 21-12 23-12 22-12 45-23 25-12 19-10 18-10 23-13 21-13 16-11 14-11 11-9 12-11 9-9 13-17 9-15z" fill="#858585"/>
<path transform="translate(957,359)" d="m0 0 6 2 16 8 23 12 20 13 32 22 13 12 10 9v2h2l7 8 12 13 11 14 14 19 13 21 10 18 11 23 9 23 8 26 6 29 2 15v12l1 10v15l1 3v33l-1 6-2 14-4 14-5 5-3-2-12 2-3-3-1-3v-13h-6v3h-2v2h-2l-2 5-8 9-6 2-3 3-11 1-9 4-5-1-7-2-5-6-1-5 3-11 2-3 2-7 1-8 2-7 1-8 2-3 2-17 3-10 3-47v-14l-1-32-4-26-4-20-6-22-3-9-8-21-7-13-4-4-10-18-12-17-6-7v-2l-4-2v3l6 15 12 36 6 22 7 34 3 24 1 13v49l-3 29-5 26-8 29-9 24-12 26-8 15-13 20-10 14-5 5h-2l1-6 12-30 9-27 7-28 5-27 3-30v-53l-3-33-6-35-6-26-7-26-11-33-10-26-12-27-12-24-11-20z" fill="#A2A2A2"/>
<path transform="translate(798,437)" d="m0 0h3l-2 4-5 6-11 9-27 27-9 11-11 13-13 18-10 15-14 25-11 24-9 25-7 23-6 29-3 24v50l2 18 2 13v7l-5-4-11-17-9-21-5-19-3-19v-24l3-24 6-26 15-39-5 5-10 15-13 25-9 24-5 19-4 25v29l5 27 6 20 6 15 8 15 8 12 12 16 8 8 3 4v4l-5 1-24 2h-13l-24-3-16-4-17-6-29-14-11-7-12-9-14-12-12-12-9-11-9-13-10-17-9-21-5-15v-3h3l1 4v4l4 2 1 6 4 2 4 7 4 3v2h3l3 5 6 4 4 6 6 3 5 5 5 1 3 2 5-1 4-2 3 1h10l2-9 3-3h2l-2-10-2-16-2-7-1-19 2-21 5-24 4-11 3-9 11-23 6-11 6-10 11-16 2-3h2l2-5 3-5h2l2-4 16-17 10-10 8-7 10-9h2l-1 3-8 7-14 13-5 4-7 8-11 12-13 18-12 19-13 25-9 23-5 19-2 15v25l3 19 5 16 5 12 8 15 10 14 4 5 2 1-2-5-11-22-5-15-2-9-1-9v-19l2-16 6-23 8-20 8-16 15-23 10-14 9-11 12-14 14-15 14-13 8-7 13-11 11-9 13-10 17-12 24-16 22-13 18-10z" fill="#727272"/>
<path transform="translate(979,190)" d="m0 0 1 3-5 17-11 26-8 17-11 19-12 19-3-1-2 5-2 3h-2l-2 4-12 14-15 16-9 9-11 9-9 8-6 5-14 10-10 7-9 6-13 8-10 6-14 8-13 8-22 12-13 7-10 6-16 8-17 9-11 7-10 5h-3l-1 3-13 7-10 5h-2v2l-9 6-10 6-12 6-17 9-9 2-15 5-14 7-10 4-12 2-4-10v-5h2v-5l8-12 8-9 5-5 7-8 9-9h2v-2l6-4 5-5 10-7h2v-2l6-4h3v-2l5-3 7-6 11-8 9-5 11-7 10-6 16-10 9-5 14-8 19-10 11-6 14-8 10-5 19-10 32-16 28-15 21-12 15-9 17-11 12-8 11-8 10-8 11-9 8-7 5-6 5-5 3-6 9-11 11-18z" fill="#A2A2A2"/>
<path transform="translate(777,452)" d="m0 0h4l-1 4h-2v2l-8 7-5 6-6 5-9 11-4 5h-2l-2 5-8 10-14 19-6 9-8 11-6 12-6 11-4 10-8 17-6 17-3 7-7 26-2 8-2 12-2 10-1 15-2 6-1-2h-8-3l-4-4-1-10-1-4 1-21 3-20 3-12 5-15 2-7-1-2 6-14h-2l-6 8-3 1-9 13-9 17-9 21-1 3-3 10-3 9-3 15-2 6-1 9v11l-2 19-1 5 1 3-3 4h-2l-2 6-6 2-3 4h-3v2h-2v2l-3 1-5-1-2 6-4 1-4-4-2-7-3-3-1-7h-2l-2-16-1-6-1-1-1-10v-9l2-7 2-15 3-11 6-17h2l2-9 5-9 6-11 2-3h2l1-5 3-5h2l2-6 12-16 3-3h2l2-4 7-8 3-4h2l2-4 7-9 6-5h2v-2l9-7h2l2-4 8-7 13-11 14-11 18-13 16-11 9-6 15-9 12-6 8-5z" fill="#858585"/>
<path transform="translate(1119,814)" d="m0 0 1 3-11 21-12 19-7 10-9 12-11 14-11 12-7 8-14 14-22 18-11 8-18 13-19 12-27 14-27 12-19 7-27 8-34 8-24 4-41 4h-28l-42-5-23-4-29-8-25-9-24-11-23-13-12-8-15-11-16-13-8-7-15-15-9-11-10-12-13-19-10-17-4-8 1-3 6 11v2h2l1 6h2v3h2l4 5 3 5 2 5 5 5v3h2l4 4v4l3 1v2h2v2h2l3 5v2l4 2 7 8v2h2v2h2l4 4v2l4 2 4 4 7 2 6 8 2 1v2h3v2l4-1v2l4 1 6 3 7 1 5 3 12 6 8 1 1 1 18 3 10 2 18 2 10 1 17 1 9-1 6 1 5-1 15-1h53l25-1 18-2h12l14-3 1 1h12l20-1 7-2 19-2 13-2 33-5 9-2 10-1 4-5 7 1 2 4 8-1 1-2 11-8 10-6h2v-2l10-6h2v-2h2v-2h2v-2l4-1 2-4 8-6 11-9 1-2h2l2-4h2l2-4h2l2-4h2l2-4h2l2-4 8-9h2l2-4 9-11 11-15 13-21 9-15z" fill="#727272"/>
<path transform="translate(859,251)" d="m0 0 4 1-1 3-12 9-5 2-11 8-18 11-16 10-13 7-11 7-13 7-11 7-16 8-9 6-8 4-12 7-18 11-20 12h-2v2l-11 7-5 4-8 5-5 1-1 3-6 4h-2v2l-5 3h-2v2h-2v2l-9 7-4 2v2l-11 8-8 9-3 3-5 3h-2l-2 4h-2l-1 3-5 2-3 6h-2v2l-4 3h-2l-1 3-5 5-9 10-7 8h-2v2l-5 4-1 2h-2l-2 4-7 8-1 3h-2v2l-5 4-10 5-4-3-4 1-2 2h-4l2-12 6-9 4-11 6-10 1-3h2l2-5 9-12 7-10 3-4h2v-2h2l2-4 5-5 9-10 8-9 8-7 4-5 6-4h2v-2l11-8 13-10 11-7 9-6 11-6 13-8 11-6 17-9 13-6 12-5 27-12 12-5 11-5 16-6 9-4 16-7 29-12 16-8 9-5 11-6z" fill="#A2A2A2"/>
<path transform="translate(1175,789)" d="m0 0h1v7l-7 24-7 20-11 25-12 23-12 20-10 14-10 13-13 16-7 7-7 8-14 14-11 9-14 12-19 14-17 11-19 11-29 14-21 8-41 12-20 4-30 4-27 2h-19l-35-2-26-4-2-1 1-3 64-6 25-5 32-9 24-8 24-10 21-10 19-10 16-9 33-22 12-9 13-11 8-7 12-11 21-21 7-8 13-16 13-18 3-1-2 4-8 13-10 14-6 9-8 9-4 5h-2v2l-5 5-7 10-2 4h-2l-2 5-3 1v5h2l1 3h-2v4l3 1 13-4 6-4 5-3 12-7 4-3h3l2-4h2v-2l5-2v-2h2v-2h2l2-4 8-11 4-5 7-6 2-4h2l2-5 6-9 7-12 6-11 8-15 4-9 5-12 9-24 5-18z" fill="#737373"/>
<path transform="translate(903,524)" d="m0 0 2 4h2l5 9 4 10 5 15 2 7 3 15 3 13 3 21v45l-2 22-5 26-3 7-1 7-2 4h-2l-2 4-4 7-2 1h-6l-1-9-3-4v-8l1-3-1-3 6-23 3-13 3-19-1-2h-4l-2 5-9 15-10 15h-2v3h-2l-2 5-2 3h-2l-2 4-5 4-5 5-11 5-3 4-3 1h-8l2-4 2-9 17-28 3-6 1-4h2l1-6 3-5 10-25 3-10 6-18 4-11 4-18 4-19 3-21z" fill="#A3A3A3"/>
<path transform="translate(1036,430)" d="m0 0 2 1 6 15 12 36 6 22 7 34 3 24 1 13v49l-3 29-5 26-8 29-9 24-12 26-8 15-13 20-10 14-5 5h-2l1-6 12-30 9-27 7-28 5-27 3-30v-53l-3-33-6-35-6-26-7-26-11-33-5-13 1-3 3 5 3 7 3 9 5 13 2 10 3 5 1 7 3 7 3 9 3 13 2 6 3 12 2 11v6h2l2 13v7h2l3 6 2 1 2 6 5 2 4 2 2-6 8 2 1-11-1-30-1-2-2-23-3-13-1-9-3-12-6-21-7-23-7-19z" fill="#868686"/>
<path transform="translate(974,372)" d="m0 0 12 4v2l5 2 11 6 9 6 7 5 2 3 9 5 4 3v2l6 2 12 7 9 8 4 3v2l3 1 5 5v2l4 2v2l4 2 6 7v2l3 1 2 6 4 2 6 7 6 8v2h2l3 5v3h2l4 7 11 18 4 7 5 18v5l-5-1-6-6-13-2-5-5v-2l-5-2-2-1-2-12-3-1-3-9-4-6v-2l-2-1-4-8-7-11-1-3h-2l-5-10-3-5v-2h-2l-5-8v-2l-3-1-9-12-1-3h-2l-5-5-1-3-6-2-4 8-2 5-13-2-8-5-6-2-3-5-2-2-7-11-6-11-8-16-1-4 2-1z" fill="#ccc"/>
<path transform="translate(798,437)" d="m0 0h3l-2 4-5 6-11 9-27 27-9 11-11 13-13 18-10 15-14 25-11 24-9 25-7 23-6 29-3 24v50l2 18 2 13v7l-5-4-11-17-9-21-5-19-3-19v-24l3-24 6-26 8-21 3-2-2 8-6 18-2 9-3 20v8l-1 13 2 14 5 4 1-1 8 1 2-6 1-13 4-19 1-5 5-22 5-16 4-10 9-21 5-10 3-7 8-16 7-11 8-11 10-14 9-12 7-10h2l2-4 9-10 2-3h2l2-4h2l2-4 9-9h2v-2h2l1-4-7 3-14 7-10 6-11 6-12 7-14 10-16 11-17 13-13 11-8 7-6 5-5 5-5 4h-2v2l-4 1-2 4h-2l-2 4-7 9-5 5-8 9-1 2h-2l-1 3-5 5-8 11-3 6h-2l-4 10h-2l-2 5-10 18-3 9h-2l-3 10-5 16-3 1 2-10 8-21 8-16 15-24 14-19 12-14 18-20 7-7 8-7 10-9 17-14 16-13 19-13 11-8 16-10 20-12 18-10z" fill="#737373"/>
<path transform="translate(1036,609)" d="m0 0h1l2 30v18l-1 21-3 22-3 19-2 7v10h2l2-4 3-4h2l2-4 5-6h2l1-7 3-4 5-15 5-17 5-23 2-1v8l-6 28-8 27-11 27-11 23-12 20-8 12-9 12-4 4h-2l1-6 12-30 9-27 7-28 5-27 3-30z" fill="#737373"/>
<path transform="translate(798,437)" d="m0 0h3l-2 4-5 6-11 9-27 27-9 11-11 13-13 18-10 15-14 25-8 17-2-1 2-7 8-16 7-13 10-14 9-13 12-16 7-10h2l2-4 9-10 2-3h2l2-4h2l2-4 9-9h2v-2h2l1-4-7 3-14 7-10 6-11 6-12 7-14 10-16 11-17 13-13 11-8 7-6 5-5 5-5 4h-2v2l-4 1-2 4h-2l-2 4-7 9-5 5-8 9-1 2h-2l-1 3-5 5-8 11-3 6h-2l-4 10h-2l-2 5-10 18-3 9h-2l-3 10-5 16-3 1 2-10 8-21 8-16 15-24 14-19 12-14 18-20 7-7 8-7 10-9 17-14 16-13 19-13 11-8 16-10 20-12 18-10z" fill="#767676"/>
<path transform="translate(915,820)" d="m0 0h2l-1 7-7 20-8 17-8 14-12 19-12 17-18 22-5 7h-2l1-5 8-10 6-10 6-7 1-3h2l2-6h2v-2h2v-4h2v-2h2l2-6 2-3h2l1-4 6-11 5-9 6-11 3-6-1-4h-2v3l-5 5-8 10h-2l-1 3-5 5h-2v2h-2v3l-3 1-5 5-4 1-3 6-5 1v3l-5 3-12 9-9 6-11 6-3-1 22-15 17-14 11-10 8-7 10-10 9-11 9-10 8-10z" fill="#737373"/>
<path transform="translate(948,243)" d="m0 0h3l2 4-3 1-3 8h-2l-2 6-8 7-5 7-14 8-8 4-9 6-8 5-7 1-1-5h3l1-3h3l1-3 8-6h2v-2h2l1-2 4-3h2v-2h2v-2l7-5h2v-2l10-7 7-7 5-2v-2h2v-2z" fill="#ccc"/>
<path transform="translate(932,686)" d="m0 0h1v8l-5 25-8 27-10 25-12 25-13 22-13 19-13 16-8 10-11 12-1 2h-2l-2 4h-2v2h-2v2l-8 7-10 9-11 9-11 8-3-1 5-2 1-3 6-4 6-5h2l2-4 8-7h2v-2l8-8h2v-2l7-6 5-6 1-2h2l2-4 10-12 11-14 6-8 7-10 6-11 6-9 10-21 7-14 5-13 9-27 5-21z" fill="#767676"/>
<path transform="translate(746,474)" d="m0 0 3 1 1 4-7 6h-2l-2 4-9 6-8 7-6 3-9 9-7 2-2 5-2 2h-3l-2-5 6-8 3-1 1-2 4-5 5-2v-2l11-7 7-5h2v-3l8-5 5-2z" fill="#A3A3A3"/>
<path transform="translate(692,502)" d="m0 0m-2 1 2 1-4 5-9 7-12 10-8 7-6 5-5 5-5 4h-2v2l-4 1-2 4h-2l-2 4-7 9-5 5-8 9-1 2h-2l-1 3-5 5-8 11-3 6h-2l-4 10h-2l-2 5-10 18-3 9h-2l-3 10-5 16-3 1 2-10 8-21 8-16 15-24 14-19 12-14 18-20 7-7 8-7 10-9 17-14z" fill="#787878"/>
<path transform="translate(871,241)" d="m0 0h3l-1 4h-2l-2 4-5 4-5-1-10 5-9 5-19 10-20 9-20 8-19 8-11 5-16 6-9 4-17 8-3-1-1-2 35-15 37-15 38-16 21-10 23-13z" fill="#878787"/>
<path transform="translate(1122,494)" d="m0 0 5 5 13 22 12 23 12 28 8 25 7 30v9h-1l-4-17-7-28-3-8-3-10-5-12-4-10-8-15-8-16-9-16-5-8z" fill="#8A8A8A"/>
<path transform="translate(1073,477)" d="m0 0 4 4 7 15 7 19 3 9 6 23 7 42 1 32v14l-1 18-2 4-1-2 1-16v-32l-2-25-3-20-6-27-7-23-10-24-4-8z" fill="#8A8A8A"/>
<path transform="translate(1064,791)" d="m0 0 1 2-8 16-9 13-13 18h-2l-1 4-33 33-13 11-7 5-2 3-6 2-1 2-5 4-3-1 4-4 13-9 16-13 15-14 7-7 9-11 9-10 10-14 11-17 7-12z" fill="#787878"/>
<path transform="translate(463,861)" d="m0 0 3 4 4 7v2h2l1 6h2v3h2l4 5 3 5 2 5 5 5v3h2l4 4v4l3 1v2h2v2h2l3 5v2l4 2 7 8v2h2v2h2l4 4v2l4 2 4 4 7 2 6 8 2 1v2h3l1 4-5-3-16-13-8-7-15-15-9-11-10-12-13-19-10-17-4-8z" fill="#777"/>
<path transform="translate(632,509)" d="m0 0h2l-1 3-8 7-14 13-5 4-7 8-11 12-13 18-12 19-13 25-2-1 3-9 5-10 14-22 7-10h2l2-5 3-5h2l2-4 16-17 10-10 8-7z" fill="#7A7A7A"/>
<path transform="translate(932,686)" d="m0 0h1v8l-5 25-8 27-10 25-12 25-3 3-1-4 16-32 5-13 9-27 5-21z" fill="#757575"/>
<path transform="translate(811,746)" d="m0 0 1 2-5 7h-2l-2 4-4 5-6 5-2 3h-2l-1 4-5 5-6 7-7 6-1 2h-2l1 5-15 8-4 1 2-4 11-10 8-7 27-27 7-8z" fill="#737373"/>
<path transform="translate(846,264)" d="m0 0 2 1-12 10-20 13-18 11-42 24 2-4 10-7 13-7 9-6 14-7 14-9 22-14z" fill="#888"/>
<path transform="translate(449,786)" d="m0 0 3 1 11 20 12 17 8 10 9 10 11 11 13 10 12 8-1 2-9-5-4-3v-2l-5-2-11-9-5-6-7-6-7-8-10-13-7-11-9-14z" fill="#767676"/>
<path transform="translate(951,231)" d="m0 0v3l-4 5h-2l-2 4h-2l-2 4-8 7-11 9-10 8-19 13-15 10-7 4-2-1 4-4 18-11 16-11 14-11 11-9 12-11z" fill="#8A8A8A"/>
<path transform="translate(871,241)" d="m0 0h3l-1 4h-2l-2 4-5 4-5-1-10 5-9 5-19 10-15 7-3-1 5-4 28-13 23-13z" fill="#868686"/>
<path transform="translate(740,499)" d="m0 0v3l-12 16-11 16-12 20-9 17-5 11-2-1 2-7 8-16 7-13 10-14 9-13 12-16z" fill="#777"/>
<path transform="translate(692,502)" d="m0 0m-2 1 2 1-4 5-9 7-12 10-8 7-6 5-5 5-5 4h-2v2l-4 1-2 4h-2l-2 4-6 4 2-4 12-12 8-7 10-9 17-14z" fill="#777"/>
<path transform="translate(1119,814)" d="m0 0 1 3-11 21-12 19-7 10-5 7-2-2 12-18 11-18 8-13z" fill="#7A7A7A"/>
<path transform="translate(885,697)" d="m0 0 1 3-9 12-11 13-7 8-9 10-10 9-4 3-2-1 11-11h2l2-4 3-1v-2h2l2-4 9-9 11-14z" fill="#787878"/>
<path transform="translate(1122,494)" d="m0 0 5 5 13 22 12 23 4 10-3-1-9-17-8-16-9-16-5-8z" fill="#8B8B8B"/>
<path transform="translate(506,926)" d="m0 0 4 1 8 9v2h2v2h2l4 4v2l4 2 4 4 7 2 6 8 2 1v2h3l1 4-5-3-16-13-8-7-15-15z" fill="#7A7A7A"/>
<path transform="translate(1175,789)" d="m0 0h1v7l-7 24-7 20-4 10-2-2 1-5 3-6 3-10 5-13 5-18z" fill="#767676"/>
<path transform="translate(576,628)" d="m0 0 1 3-3 4-5 12-1 3h-2l-3 10-5 16-3 1 2-10 8-21 8-16z" fill="#767676"/>
<path transform="translate(431,741)" d="m0 0h2l9 24-1 3v-2l-6-2-3-2-1-8z" fill="#787878"/>
<path transform="translate(813,278)" d="m0 0h3v3l-9 5-11 4-4 3-10 2v-3l4-2h3v-2l9-3 5-3h6l1-3z" fill="#CBCBCB"/>
<path transform="translate(932,686)" d="m0 0h1v8l-5 25-8 27-2 3-1-5 7-21 5-21z" fill="#7A7A7A"/>
<path transform="translate(1124,831)" d="m0 0 1 2-3 5-3 7-2 5h-2l-2 5-6 11-8 12h-3l11-18 12-22 3-6z" fill="#767676"/>
<path transform="translate(632,509)" d="m0 0h2l-1 3-8 7-14 13-5 4-7 8-4 3 1-4 18-18 8-7z" fill="#7C7C7C"/>
<path transform="translate(846,264)" d="m0 0 2 1-12 10-20 13-9 5 2-4 9-6 22-14z" fill="#8A8A8A"/>
<path transform="translate(903,533)" d="m0 0h1v9l-4 27-2 7h-2l1-11 5-29z" fill="#888"/>
<path transform="translate(839,804)" d="m0 0 2 1-7 9-7 6-12 12-9 7v-3l8-7 6-6h2v-2l8-7z" fill="#777"/>
<path transform="translate(803,276)" d="m0 0 2 1-4 4-20 8-9 3 2-4z" fill="#888"/>
<path transform="translate(834,262)" d="m0 0 2 2-23 12-7 3-3-1 5-4z" fill="#848484"/>
<path transform="translate(1036,609)" d="m0 0h1l2 30v11l-3 3z" fill="#7C7C7C"/>
<path transform="translate(484,898)" d="m0 0 4 1 3 4v3h2l4 4v4l3 1v2h2v2h2l3 5v2l-4-2-9-11-10-14z" fill="#777"/>
<path transform="translate(1119,814)" d="m0 0 1 3-11 21-5 8-2-1 2-5 9-16z" fill="#777"/>
<path transform="translate(628,559)" d="m0 0v3l-4 5-5 5-8 9-1 2h-2l-1 3-3-1 9-11 8-9z" fill="#757575"/>
<path transform="translate(562,590)" d="m0 0 1 3-13 25-2-1 3-9 5-10z" fill="#757575"/>
<path transform="translate(494,848)" d="m0 0 4 2 11 10 19 13-1 2-9-5-4-3v-2l-5-2-11-9-4-4z" fill="#787878"/>
<path transform="translate(740,499)" d="m0 0v3l-12 16-11 16-2-2 8-11 13-18z" fill="#7A7A7A"/>
<path transform="translate(692,502)" d="m0 0m-2 1 2 1-4 5-9 7-12 10-2-1 4-5 11-9z" fill="#787878"/>
<path transform="translate(860,729)" d="m0 0v3l-11 12-8 7-5 4-2-1 11-11h2l2-4 3-1v-2z" fill="#797979"/>
<path transform="translate(782,304)" d="m0 0m-1 1m-1 1m-2 1h2l-1 3-21 12-2 1 2-4 10-7z" fill="#898989"/>
<path transform="translate(811,746)" d="m0 0 1 2-5 7h-2l-2 4-4 5-6 5-2 3-3-1 9-9 7-8z" fill="#767676"/>
<path transform="translate(1068,430)" d="m0 0 5 3 4 4v2h2l7 8 12 13-1 2-7-7-7-8-15-15z" fill="#8D8D8D"/>
<path transform="translate(449,786)" d="m0 0 3 1 11 20 7 11-4-2-7-11-6-9z" fill="#7A7A7A"/>
<path transform="translate(1064,791)" d="m0 0 1 2-8 16-5 7-4 2 2-5 9-14z" fill="#797979"/>
<path transform="translate(997,442)" d="m0 0 3 2 4 10 3 9 2 9h-2l-10-27z" fill="#8C8C8C"/>
<path transform="translate(535,953)" d="m0 0h5l3 3 3 5 3 2v2h3l1 4-5-3-13-10z" fill="#777"/>
<path transform="translate(1032,840)" d="m0 0 1 3-18 18-2-1 11-12 5-5z" fill="#757575"/>
<path transform="translate(1073,477)" d="m0 0 4 4 7 15 1 6h-2l-8-18-2-4z" fill="#898989"/>
<path transform="translate(884,285)" d="m0 0 2 1-5 5-12 7-2-1 4-4z" fill="#8A8A8A"/>
<path transform="translate(856,250)" d="m0 0m-2 1h2l-1 3-14 7-2 2-4-1 8-5z" fill="#898989"/>
<path transform="translate(977,196)" d="m0 0h1l-1 8-5 13-2 1 2-9 4-12z" fill="#8A8A8A"/>
<path transform="translate(1124,831)" d="m0 0 1 2-3 5-3 7-2 5-4 1 2-5 7-14z" fill="#777"/>
<path transform="translate(1175,789)" d="m0 0h1v7l-5 18-2-1 1-6z" fill="#7A7A7A"/>
<path transform="translate(979,890)" d="m0 0 2 1-4 5-6 2-1 2-5 4-3-1 4-4z" fill="#777"/>
<path transform="translate(642,544)" d="m0 0m-1 1m-2 1h2v3l-4 1-2 4h-2l-2 4-6 4 2-4z" fill="#7D7D7D"/>
<path transform="translate(958,904)" d="m0 0 3 1-10 6-12 6h-2v-2l16-8z" fill="#7B7B7B"/>
<path transform="translate(573,573)" d="m0 0 1 3-10 15-2-2 7-12z" fill="#777"/>
<path transform="translate(632,509)" d="m0 0h2l-1 3-16 14v-3l10-10z" fill="#787878"/>
<path transform="translate(806,903)" d="m0 0 1 3-13 10-3 2-3-1 5-2 1-3 6-4z" fill="#787878"/>
<path transform="translate(833,900)" d="m0 0 2 1-4 5-11 6-3-1z" fill="#797979"/>
<path transform="translate(930,290)" d="m0 0h2l-2 5-9 12-2-2 5-7h2l2-5z" fill="#8B8B8B"/>
<path transform="translate(917,748)" d="m0 0 1 3-6 15-2-1 3-10 3-6z" fill="#767676"/>
<path transform="translate(696,566)" d="m0 0 1 3-6 13-2-1 2-7 3-6z" fill="#787878"/>
<path transform="translate(1092,860)" d="m0 0 1 3-8 11-2-2 7-10z" fill="#777"/>
<path transform="translate(826,271)" d="m0 0h6l-2 2-6 3-4 3h-3l1-4z" fill="#ccc"/>
<path transform="translate(892,716)" d="m0 0 1 3-6 16-2 3h-2l2-6z" fill="#797979"/>
<path transform="translate(1071,622)" d="m0 0h1v14l-2 9h-1v-10z" fill="#767676"/>
<path transform="translate(603,586)" d="m0 0 2 1-8 11-4 5-2-1z" fill="#797979"/>
<path transform="translate(922,733)" d="m0 0 1 4-4 12-2-1 1-7z" fill="#7A7A7A"/>
<path transform="translate(728,477)" d="m0 0m-2 1h2l-2 4-10 7-2-1 5-5z" fill="#747474"/>
<path transform="translate(760,798)" d="m0 0m-1 1m-2 1 2 1-3 3h3v2l-10 4 2-4z" fill="#808080"/>
<path transform="translate(496,914)" d="m0 0 4 1v2h2v2h2l3 5v2l-4-2-7-9z" fill="#767676"/>
<path transform="translate(1161,836)" d="m0 0 1 4-4 10-2-2 1-5 3-6z" fill="#797979"/>
<path transform="translate(1106,864)" d="m0 0 1 2-8 12h-3l8-13z" fill="#7B7B7B"/>
<path transform="translate(926,717)" d="m0 0h1l-1 10-2 6h-2l1-6 2-9z" fill="#767676"/>
<path transform="translate(594,546)" d="m0 0v3l-8 10-2-1v-2h2l2-4z" fill="#777"/>
<path transform="translate(514,865)" d="m0 0 5 2 9 6-1 2-9-5-4-3z" fill="#767676"/>
<path transform="translate(628,559)" d="m0 0v3l-4 5-6 4-2 1 2-4z" fill="#777"/>
<path transform="translate(979,190)" d="m0 0 1 3-2 4-2 2-3 5-1-3 6-10z" fill="#A8A8A8"/>
<path transform="translate(431,741)" d="m0 0h2l2 4-1 5-3 4z" fill="#929292"/>
<path transform="translate(1175,620)" d="m0 0h2l2 7v9h-1l-3-12z" fill="#8C8C8C"/>
<path transform="translate(740,499)" d="m0 0v3l-9 12-1-3 8-10z" fill="#797979"/>
<path transform="translate(951,231)" d="m0 0v3l-4 5h-2l-2 4-3-1z" fill="#8C8C8C"/>
<path transform="translate(1165,825)" d="m0 0 1 4-3 8-2-1 1-6z" fill="#757575"/>
<path transform="translate(880,821)" d="m0 0 1 3-5 7-2-1 2-5z" fill="#757575"/>
<path transform="translate(669,333)" d="m0 0v3l-4 4-5 1 3-5z" fill="#868686"/>
<path transform="translate(582,618)" d="m0 0v3l-4 7-4 2 2-5 4-6z" fill="#797979"/>
<path transform="translate(653,601)" d="m0 0 1 2-3 9-3 1 1-5 3-6z" fill="#777"/>
<path transform="translate(1073,477)" d="m0 0 4 4 3 6v3h-2l-5-10z" fill="#8C8C8C"/>
<path transform="translate(957,359)" d="m0 0 6 2 1 2-2 1-1 4-4-7z" fill="#8C8C8C"/>
<path transform="translate(703,318)" d="m0 0 4 1-3 3-5 1-2-2z" fill="#818181"/>
</svg>
